<mxfile host="app.diagrams.net" agent="Mozilla/5.0 (Windows NT 10.0; Win64; x64) AppleWebKit/537.36 (KHTML, like Gecko) Chrome/136.0.0.0 Safari/537.36" version="26.0.5">
  <diagram name="PaginÄƒ-1" id="aJqB7kR5RVxzrpNTdIit">
    <mxGraphModel dx="1433" dy="726" grid="1" gridSize="10" guides="1" tooltips="1" connect="1" arrows="1" fold="1" page="1" pageScale="1" pageWidth="827" pageHeight="1169" math="0" shadow="0">
      <root>
        <mxCell id="0" />
        <mxCell id="1" parent="0" />
        <mxCell id="9AYCSsKc54XCeWelIV_a-2" value="Observer" style="swimlane;fontStyle=1;align=center;verticalAlign=middle;childLayout=stackLayout;horizontal=1;startSize=29;horizontalStack=0;resizeParent=1;resizeParentMax=0;resizeLast=0;collapsible=0;marginBottom=0;html=1;whiteSpace=wrap;" vertex="1" parent="1">
          <mxGeometry x="460" y="360" width="140" height="54" as="geometry" />
        </mxCell>
        <mxCell id="9AYCSsKc54XCeWelIV_a-4" value="+ update: void()" style="text;html=1;strokeColor=none;fillColor=none;align=left;verticalAlign=middle;spacingLeft=4;spacingRight=4;overflow=hidden;rotatable=0;points=[[0,0.5],[1,0.5]];portConstraint=eastwest;whiteSpace=wrap;" vertex="1" parent="9AYCSsKc54XCeWelIV_a-2">
          <mxGeometry y="29" width="140" height="25" as="geometry" />
        </mxCell>
        <mxCell id="9AYCSsKc54XCeWelIV_a-12" value="Subject" style="swimlane;fontStyle=1;align=center;verticalAlign=top;childLayout=stackLayout;horizontal=1;startSize=26;horizontalStack=0;resizeParent=1;resizeParentMax=0;resizeLast=0;collapsible=1;marginBottom=0;whiteSpace=wrap;html=1;" vertex="1" parent="1">
          <mxGeometry x="130" y="200" width="150" height="100" as="geometry" />
        </mxCell>
        <mxCell id="9AYCSsKc54XCeWelIV_a-14" value="" style="line;strokeWidth=1;fillColor=none;align=left;verticalAlign=middle;spacingTop=-1;spacingLeft=3;spacingRight=3;rotatable=0;labelPosition=right;points=[];portConstraint=eastwest;strokeColor=inherit;" vertex="1" parent="9AYCSsKc54XCeWelIV_a-12">
          <mxGeometry y="26" width="150" height="8" as="geometry" />
        </mxCell>
        <mxCell id="9AYCSsKc54XCeWelIV_a-15" value="+ registerObserver: void()&lt;div&gt;&lt;div&gt;+removerObserver: void()&lt;/div&gt;&lt;div&gt;+ notifyObserver: void()&lt;/div&gt;&lt;/div&gt;" style="text;strokeColor=none;fillColor=none;align=left;verticalAlign=top;spacingLeft=4;spacingRight=4;overflow=hidden;rotatable=0;points=[[0,0.5],[1,0.5]];portConstraint=eastwest;whiteSpace=wrap;html=1;" vertex="1" parent="9AYCSsKc54XCeWelIV_a-12">
          <mxGeometry y="34" width="150" height="66" as="geometry" />
        </mxCell>
        <mxCell id="9AYCSsKc54XCeWelIV_a-62" style="edgeStyle=orthogonalEdgeStyle;rounded=0;orthogonalLoop=1;jettySize=auto;html=1;exitX=0.75;exitY=0;exitDx=0;exitDy=0;entryX=0;entryY=0.25;entryDx=0;entryDy=0;" edge="1" parent="1" source="9AYCSsKc54XCeWelIV_a-16" target="9AYCSsKc54XCeWelIV_a-23">
          <mxGeometry relative="1" as="geometry" />
        </mxCell>
        <mxCell id="9AYCSsKc54XCeWelIV_a-63" value="1" style="edgeLabel;html=1;align=center;verticalAlign=middle;resizable=0;points=[];" vertex="1" connectable="0" parent="9AYCSsKc54XCeWelIV_a-62">
          <mxGeometry x="-0.8891" relative="1" as="geometry">
            <mxPoint x="8" y="2" as="offset" />
          </mxGeometry>
        </mxCell>
        <mxCell id="9AYCSsKc54XCeWelIV_a-16" value="Camera" style="swimlane;fontStyle=1;align=center;verticalAlign=top;childLayout=stackLayout;horizontal=1;startSize=26;horizontalStack=0;resizeParent=1;resizeParentMax=0;resizeLast=0;collapsible=1;marginBottom=0;whiteSpace=wrap;html=1;" vertex="1" parent="1">
          <mxGeometry x="135" y="400" width="250" height="130" as="geometry" />
        </mxCell>
        <mxCell id="9AYCSsKc54XCeWelIV_a-18" value="" style="line;strokeWidth=1;fillColor=none;align=left;verticalAlign=middle;spacingTop=-1;spacingLeft=3;spacingRight=3;rotatable=0;labelPosition=right;points=[];portConstraint=eastwest;strokeColor=inherit;" vertex="1" parent="9AYCSsKc54XCeWelIV_a-16">
          <mxGeometry y="26" width="250" height="8" as="geometry" />
        </mxCell>
        <mxCell id="9AYCSsKc54XCeWelIV_a-19" value="+ setBehaviour: void()&lt;div&gt;+ detect: void()&lt;/div&gt;&lt;div&gt;+ registerObserver (o: Observer): void()&lt;/div&gt;&lt;div&gt;+removeObserver(o: Observer): void()&lt;/div&gt;&lt;div&gt;+notifyObservers(data: String): void()&lt;/div&gt;" style="text;strokeColor=none;fillColor=none;align=left;verticalAlign=top;spacingLeft=4;spacingRight=4;overflow=hidden;rotatable=0;points=[[0,0.5],[1,0.5]];portConstraint=eastwest;whiteSpace=wrap;html=1;" vertex="1" parent="9AYCSsKc54XCeWelIV_a-16">
          <mxGeometry y="34" width="250" height="96" as="geometry" />
        </mxCell>
        <mxCell id="9AYCSsKc54XCeWelIV_a-20" style="edgeStyle=orthogonalEdgeStyle;rounded=0;orthogonalLoop=1;jettySize=auto;html=1;entryX=0;entryY=0.25;entryDx=0;entryDy=0;" edge="1" parent="1" source="9AYCSsKc54XCeWelIV_a-19" target="9AYCSsKc54XCeWelIV_a-2">
          <mxGeometry relative="1" as="geometry">
            <mxPoint x="130" y="448.9999999999999" as="sourcePoint" />
          </mxGeometry>
        </mxCell>
        <mxCell id="9AYCSsKc54XCeWelIV_a-22" value="*" style="edgeLabel;html=1;align=center;verticalAlign=middle;resizable=0;points=[];" vertex="1" connectable="0" parent="9AYCSsKc54XCeWelIV_a-20">
          <mxGeometry x="0.9229" relative="1" as="geometry">
            <mxPoint y="13" as="offset" />
          </mxGeometry>
        </mxCell>
        <mxCell id="9AYCSsKc54XCeWelIV_a-61" value="1" style="edgeLabel;html=1;align=center;verticalAlign=middle;resizable=0;points=[];" vertex="1" connectable="0" parent="9AYCSsKc54XCeWelIV_a-20">
          <mxGeometry x="-0.8498" y="-3" relative="1" as="geometry">
            <mxPoint x="-8" y="5" as="offset" />
          </mxGeometry>
        </mxCell>
        <mxCell id="9AYCSsKc54XCeWelIV_a-23" value="CameraBeahvior" style="swimlane;fontStyle=1;align=center;verticalAlign=top;childLayout=stackLayout;horizontal=1;startSize=26;horizontalStack=0;resizeParent=1;resizeParentMax=0;resizeLast=0;collapsible=1;marginBottom=0;whiteSpace=wrap;html=1;" vertex="1" parent="1">
          <mxGeometry x="371" y="185" width="160" height="60" as="geometry" />
        </mxCell>
        <mxCell id="9AYCSsKc54XCeWelIV_a-25" value="" style="line;strokeWidth=1;fillColor=none;align=left;verticalAlign=middle;spacingTop=-1;spacingLeft=3;spacingRight=3;rotatable=0;labelPosition=right;points=[];portConstraint=eastwest;strokeColor=inherit;" vertex="1" parent="9AYCSsKc54XCeWelIV_a-23">
          <mxGeometry y="26" width="160" height="8" as="geometry" />
        </mxCell>
        <mxCell id="9AYCSsKc54XCeWelIV_a-26" value="+ detectBehavior: String" style="text;strokeColor=none;fillColor=none;align=left;verticalAlign=top;spacingLeft=4;spacingRight=4;overflow=hidden;rotatable=0;points=[[0,0.5],[1,0.5]];portConstraint=eastwest;whiteSpace=wrap;html=1;" vertex="1" parent="9AYCSsKc54XCeWelIV_a-23">
          <mxGeometry y="34" width="160" height="26" as="geometry" />
        </mxCell>
        <mxCell id="9AYCSsKc54XCeWelIV_a-27" value="GestureRecognition" style="swimlane;fontStyle=1;align=center;verticalAlign=top;childLayout=stackLayout;horizontal=1;startSize=26;horizontalStack=0;resizeParent=1;resizeParentMax=0;resizeLast=0;collapsible=1;marginBottom=0;whiteSpace=wrap;html=1;" vertex="1" parent="1">
          <mxGeometry x="371" y="97" width="160" height="60" as="geometry" />
        </mxCell>
        <mxCell id="9AYCSsKc54XCeWelIV_a-29" value="" style="line;strokeWidth=1;fillColor=none;align=left;verticalAlign=middle;spacingTop=-1;spacingLeft=3;spacingRight=3;rotatable=0;labelPosition=right;points=[];portConstraint=eastwest;strokeColor=inherit;" vertex="1" parent="9AYCSsKc54XCeWelIV_a-27">
          <mxGeometry y="26" width="160" height="8" as="geometry" />
        </mxCell>
        <mxCell id="9AYCSsKc54XCeWelIV_a-30" value="+ detectBehavior: String" style="text;strokeColor=none;fillColor=none;align=left;verticalAlign=top;spacingLeft=4;spacingRight=4;overflow=hidden;rotatable=0;points=[[0,0.5],[1,0.5]];portConstraint=eastwest;whiteSpace=wrap;html=1;" vertex="1" parent="9AYCSsKc54XCeWelIV_a-27">
          <mxGeometry y="34" width="160" height="26" as="geometry" />
        </mxCell>
        <mxCell id="9AYCSsKc54XCeWelIV_a-31" value="ObjectTracking" style="swimlane;fontStyle=1;align=center;verticalAlign=top;childLayout=stackLayout;horizontal=1;startSize=26;horizontalStack=0;resizeParent=1;resizeParentMax=0;resizeLast=0;collapsible=1;marginBottom=0;whiteSpace=wrap;html=1;" vertex="1" parent="1">
          <mxGeometry x="371" y="270" width="160" height="60" as="geometry" />
        </mxCell>
        <mxCell id="9AYCSsKc54XCeWelIV_a-32" value="" style="line;strokeWidth=1;fillColor=none;align=left;verticalAlign=middle;spacingTop=-1;spacingLeft=3;spacingRight=3;rotatable=0;labelPosition=right;points=[];portConstraint=eastwest;strokeColor=inherit;" vertex="1" parent="9AYCSsKc54XCeWelIV_a-31">
          <mxGeometry y="26" width="160" height="8" as="geometry" />
        </mxCell>
        <mxCell id="9AYCSsKc54XCeWelIV_a-33" value="+ detectBehavior: String" style="text;strokeColor=none;fillColor=none;align=left;verticalAlign=top;spacingLeft=4;spacingRight=4;overflow=hidden;rotatable=0;points=[[0,0.5],[1,0.5]];portConstraint=eastwest;whiteSpace=wrap;html=1;" vertex="1" parent="9AYCSsKc54XCeWelIV_a-31">
          <mxGeometry y="34" width="160" height="26" as="geometry" />
        </mxCell>
        <mxCell id="9AYCSsKc54XCeWelIV_a-38" value="Projector" style="swimlane;fontStyle=1;align=center;verticalAlign=top;childLayout=stackLayout;horizontal=1;startSize=26;horizontalStack=0;resizeParent=1;resizeParentMax=0;resizeLast=0;collapsible=1;marginBottom=0;whiteSpace=wrap;html=1;" vertex="1" parent="1">
          <mxGeometry x="1020" y="248" width="160" height="110" as="geometry" />
        </mxCell>
        <mxCell id="9AYCSsKc54XCeWelIV_a-39" value="- name: String" style="text;strokeColor=none;fillColor=none;align=left;verticalAlign=top;spacingLeft=4;spacingRight=4;overflow=hidden;rotatable=0;points=[[0,0.5],[1,0.5]];portConstraint=eastwest;whiteSpace=wrap;html=1;" vertex="1" parent="9AYCSsKc54XCeWelIV_a-38">
          <mxGeometry y="26" width="160" height="26" as="geometry" />
        </mxCell>
        <mxCell id="9AYCSsKc54XCeWelIV_a-40" value="" style="line;strokeWidth=1;fillColor=none;align=left;verticalAlign=middle;spacingTop=-1;spacingLeft=3;spacingRight=3;rotatable=0;labelPosition=right;points=[];portConstraint=eastwest;strokeColor=inherit;" vertex="1" parent="9AYCSsKc54XCeWelIV_a-38">
          <mxGeometry y="52" width="160" height="8" as="geometry" />
        </mxCell>
        <mxCell id="9AYCSsKc54XCeWelIV_a-41" value="+Projector (name: String)&lt;br&gt;+ turnOn: void()&lt;div&gt;+update(data: String): void()&lt;/div&gt;" style="text;strokeColor=none;fillColor=none;align=left;verticalAlign=top;spacingLeft=4;spacingRight=4;overflow=hidden;rotatable=0;points=[[0,0.5],[1,0.5]];portConstraint=eastwest;whiteSpace=wrap;html=1;" vertex="1" parent="9AYCSsKc54XCeWelIV_a-38">
          <mxGeometry y="60" width="160" height="50" as="geometry" />
        </mxCell>
        <mxCell id="9AYCSsKc54XCeWelIV_a-43" value="Command" style="swimlane;fontStyle=1;align=center;verticalAlign=top;childLayout=stackLayout;horizontal=1;startSize=26;horizontalStack=0;resizeParent=1;resizeParentMax=0;resizeLast=0;collapsible=1;marginBottom=0;whiteSpace=wrap;html=1;" vertex="1" parent="1">
          <mxGeometry x="730" y="225" width="160" height="60" as="geometry" />
        </mxCell>
        <mxCell id="9AYCSsKc54XCeWelIV_a-44" value="" style="line;strokeWidth=1;fillColor=none;align=left;verticalAlign=middle;spacingTop=-1;spacingLeft=3;spacingRight=3;rotatable=0;labelPosition=right;points=[];portConstraint=eastwest;strokeColor=inherit;" vertex="1" parent="9AYCSsKc54XCeWelIV_a-43">
          <mxGeometry y="26" width="160" height="8" as="geometry" />
        </mxCell>
        <mxCell id="9AYCSsKc54XCeWelIV_a-45" value="+ execute: void()" style="text;strokeColor=none;fillColor=none;align=left;verticalAlign=top;spacingLeft=4;spacingRight=4;overflow=hidden;rotatable=0;points=[[0,0.5],[1,0.5]];portConstraint=eastwest;whiteSpace=wrap;html=1;" vertex="1" parent="9AYCSsKc54XCeWelIV_a-43">
          <mxGeometry y="34" width="160" height="26" as="geometry" />
        </mxCell>
        <mxCell id="9AYCSsKc54XCeWelIV_a-49" style="edgeStyle=orthogonalEdgeStyle;rounded=0;orthogonalLoop=1;jettySize=auto;html=1;entryX=0;entryY=0.5;entryDx=0;entryDy=0;" edge="1" parent="1" source="9AYCSsKc54XCeWelIV_a-46" target="9AYCSsKc54XCeWelIV_a-41">
          <mxGeometry relative="1" as="geometry" />
        </mxCell>
        <mxCell id="9AYCSsKc54XCeWelIV_a-60" value="1" style="edgeLabel;html=1;align=center;verticalAlign=middle;resizable=0;points=[];" vertex="1" connectable="0" parent="9AYCSsKc54XCeWelIV_a-49">
          <mxGeometry x="0.6752" y="3" relative="1" as="geometry">
            <mxPoint x="9" y="-10" as="offset" />
          </mxGeometry>
        </mxCell>
        <mxCell id="9AYCSsKc54XCeWelIV_a-53" style="edgeStyle=orthogonalEdgeStyle;rounded=0;orthogonalLoop=1;jettySize=auto;html=1;entryX=0;entryY=0.5;entryDx=0;entryDy=0;dashed=1;endArrow=block;endFill=0;" edge="1" parent="1" source="9AYCSsKc54XCeWelIV_a-46" target="9AYCSsKc54XCeWelIV_a-45">
          <mxGeometry relative="1" as="geometry" />
        </mxCell>
        <mxCell id="9AYCSsKc54XCeWelIV_a-46" value="TunOnCommand" style="swimlane;fontStyle=1;align=center;verticalAlign=top;childLayout=stackLayout;horizontal=1;startSize=26;horizontalStack=0;resizeParent=1;resizeParentMax=0;resizeLast=0;collapsible=1;marginBottom=0;whiteSpace=wrap;html=1;" vertex="1" parent="1">
          <mxGeometry x="710" y="350" width="250" height="80" as="geometry" />
        </mxCell>
        <mxCell id="9AYCSsKc54XCeWelIV_a-47" value="" style="line;strokeWidth=1;fillColor=none;align=left;verticalAlign=middle;spacingTop=-1;spacingLeft=3;spacingRight=3;rotatable=0;labelPosition=right;points=[];portConstraint=eastwest;strokeColor=inherit;" vertex="1" parent="9AYCSsKc54XCeWelIV_a-46">
          <mxGeometry y="26" width="250" height="8" as="geometry" />
        </mxCell>
        <mxCell id="9AYCSsKc54XCeWelIV_a-48" value="&lt;div&gt;+TurnOnCommand(projector: Projector)&lt;/div&gt;+ execute: void()" style="text;strokeColor=none;fillColor=none;align=left;verticalAlign=top;spacingLeft=4;spacingRight=4;overflow=hidden;rotatable=0;points=[[0,0.5],[1,0.5]];portConstraint=eastwest;whiteSpace=wrap;html=1;" vertex="1" parent="9AYCSsKc54XCeWelIV_a-46">
          <mxGeometry y="34" width="250" height="46" as="geometry" />
        </mxCell>
        <mxCell id="9AYCSsKc54XCeWelIV_a-50" value="AnalyzeCommand" style="swimlane;fontStyle=1;align=center;verticalAlign=top;childLayout=stackLayout;horizontal=1;startSize=26;horizontalStack=0;resizeParent=1;resizeParentMax=0;resizeLast=0;collapsible=1;marginBottom=0;whiteSpace=wrap;html=1;" vertex="1" parent="1">
          <mxGeometry x="710" y="450" width="240" height="80" as="geometry" />
        </mxCell>
        <mxCell id="9AYCSsKc54XCeWelIV_a-51" value="" style="line;strokeWidth=1;fillColor=none;align=left;verticalAlign=middle;spacingTop=-1;spacingLeft=3;spacingRight=3;rotatable=0;labelPosition=right;points=[];portConstraint=eastwest;strokeColor=inherit;" vertex="1" parent="9AYCSsKc54XCeWelIV_a-50">
          <mxGeometry y="26" width="240" height="8" as="geometry" />
        </mxCell>
        <mxCell id="9AYCSsKc54XCeWelIV_a-52" value="+ AnalyzeCommand(projector: Projector)&lt;br&gt;+ execute: void()" style="text;strokeColor=none;fillColor=none;align=left;verticalAlign=top;spacingLeft=4;spacingRight=4;overflow=hidden;rotatable=0;points=[[0,0.5],[1,0.5]];portConstraint=eastwest;whiteSpace=wrap;html=1;" vertex="1" parent="9AYCSsKc54XCeWelIV_a-50">
          <mxGeometry y="34" width="240" height="46" as="geometry" />
        </mxCell>
        <mxCell id="9AYCSsKc54XCeWelIV_a-55" style="edgeStyle=orthogonalEdgeStyle;rounded=0;orthogonalLoop=1;jettySize=auto;html=1;entryX=1;entryY=0.5;entryDx=0;entryDy=0;dashed=1;endArrow=block;endFill=0;exitX=0.5;exitY=0;exitDx=0;exitDy=0;" edge="1" parent="1" source="9AYCSsKc54XCeWelIV_a-16" target="9AYCSsKc54XCeWelIV_a-15">
          <mxGeometry relative="1" as="geometry">
            <mxPoint x="305" y="388" as="sourcePoint" />
            <mxPoint x="200" y="310" as="targetPoint" />
          </mxGeometry>
        </mxCell>
        <mxCell id="9AYCSsKc54XCeWelIV_a-56" style="edgeStyle=orthogonalEdgeStyle;rounded=0;orthogonalLoop=1;jettySize=auto;html=1;entryX=1;entryY=0.25;entryDx=0;entryDy=0;dashed=1;endArrow=block;endFill=0;exitX=1;exitY=0.25;exitDx=0;exitDy=0;" edge="1" parent="1" source="9AYCSsKc54XCeWelIV_a-27" target="9AYCSsKc54XCeWelIV_a-23">
          <mxGeometry relative="1" as="geometry">
            <mxPoint x="679" y="278" as="sourcePoint" />
            <mxPoint x="574" y="200" as="targetPoint" />
          </mxGeometry>
        </mxCell>
        <mxCell id="9AYCSsKc54XCeWelIV_a-57" style="edgeStyle=orthogonalEdgeStyle;rounded=0;orthogonalLoop=1;jettySize=auto;html=1;entryX=1;entryY=0.5;entryDx=0;entryDy=0;dashed=1;endArrow=block;endFill=0;exitX=1;exitY=0.5;exitDx=0;exitDy=0;" edge="1" parent="1" source="9AYCSsKc54XCeWelIV_a-33" target="9AYCSsKc54XCeWelIV_a-26">
          <mxGeometry relative="1" as="geometry">
            <mxPoint x="655" y="548" as="sourcePoint" />
            <mxPoint x="550" y="470" as="targetPoint" />
          </mxGeometry>
        </mxCell>
        <mxCell id="9AYCSsKc54XCeWelIV_a-58" style="edgeStyle=orthogonalEdgeStyle;rounded=0;orthogonalLoop=1;jettySize=auto;html=1;dashed=1;endArrow=block;endFill=0;exitX=1;exitY=0.25;exitDx=0;exitDy=0;" edge="1" parent="1" source="9AYCSsKc54XCeWelIV_a-38" target="9AYCSsKc54XCeWelIV_a-2">
          <mxGeometry relative="1" as="geometry">
            <mxPoint x="1220" y="248" as="sourcePoint" />
            <mxPoint x="470" y="458" as="targetPoint" />
            <Array as="points">
              <mxPoint x="1220" y="276" />
              <mxPoint x="1220" y="420" />
              <mxPoint x="1100" y="420" />
              <mxPoint x="1100" y="610" />
              <mxPoint x="530" y="610" />
            </Array>
          </mxGeometry>
        </mxCell>
        <mxCell id="9AYCSsKc54XCeWelIV_a-59" value="1" style="text;html=1;align=center;verticalAlign=middle;resizable=0;points=[];autosize=1;strokeColor=none;fillColor=none;" vertex="1" parent="1">
          <mxGeometry x="955" y="368" width="30" height="30" as="geometry" />
        </mxCell>
        <mxCell id="9AYCSsKc54XCeWelIV_a-64" value="1" style="text;html=1;align=center;verticalAlign=middle;resizable=0;points=[];autosize=1;strokeColor=none;fillColor=none;" vertex="1" parent="1">
          <mxGeometry x="341" y="180" width="30" height="30" as="geometry" />
        </mxCell>
        <mxCell id="9AYCSsKc54XCeWelIV_a-66" style="edgeStyle=orthogonalEdgeStyle;rounded=0;orthogonalLoop=1;jettySize=auto;html=1;entryX=0;entryY=0.25;entryDx=0;entryDy=0;dashed=1;endArrow=block;endFill=0;exitX=0;exitY=0.5;exitDx=0;exitDy=0;" edge="1" parent="1" source="9AYCSsKc54XCeWelIV_a-52" target="9AYCSsKc54XCeWelIV_a-43">
          <mxGeometry relative="1" as="geometry">
            <mxPoint x="725" y="476" as="sourcePoint" />
            <mxPoint x="620" y="398" as="targetPoint" />
            <Array as="points">
              <mxPoint x="660" y="507" />
              <mxPoint x="660" y="240" />
            </Array>
          </mxGeometry>
        </mxCell>
      </root>
    </mxGraphModel>
  </diagram>
</mxfile>
